<?xml version="1.0" encoding="UTF-8" standalone="no"?>
<svg width="71px" height="19px" viewBox="0 0 71 19" version="1.1" xmlns="http://www.w3.org/2000/svg" xmlns:xlink="http://www.w3.org/1999/xlink">
    <!-- Generator: Sketch 3.7.2 (28276) - http://www.bohemiancoding.com/sketch -->
    <title>Paypal Logo</title>
    <desc>Created with Sketch.</desc>
    <defs></defs>
    <g id="Page-1" stroke="none" stroke-width="1" fill="none" fill-rule="evenodd">
        <g id="Forms" transform="translate(-1111.000000, -930.000000)" fill="#FFFFFF">
            <g id="Credit-card-detail" transform="translate(930.000000, 580.000000)">
                <g id="Buttons" transform="translate(30.000000, 286.000000)">
                    <path d="M206.71015,74.5783337 C206.503644,75.5689643 205.71918,76.0007331 204.768906,76.0438229 C203.942449,76.0864774 203.198248,75.3535152 203.73551,74.492154 C204.149388,73.7596271 205.306168,73.5872678 206.008376,73.5872678 L206.917522,73.5872678 C206.8344,73.9319863 206.791973,74.2340504 206.71015,74.5783337 M206.462516,66.9940898 C204.685784,66.9940898 203.28137,67.4680778 202.207278,67.6839622 L201.876089,70.3981857 C202.413351,70.1396468 204.106961,69.666094 205.512241,69.6225689 C206.917522,69.5794791 207.743546,69.8811078 207.454784,71.0876228 C203.28137,71.0876228 200.471241,71.9494193 199.892851,74.6645133 C199.065961,79.3186493 204.149388,79.1893799 206.173754,77.163723 L205.925687,78.2844936 L209.644095,78.2844936 L211.256315,70.8721737 C211.916528,67.7261815 209.065272,66.9514352 206.462516,66.9940898 Z M214.437331,64.0630243 L211.36052,78.2844066 L215.13824,78.2844066 L218.253148,64.0630243 L214.437331,64.0630243 Z M196.958343,68.9330447 C196.70941,70.0107255 195.632288,70.8725219 194.596727,70.8725219 L192.73341,70.8725219 L193.562032,66.9940027 L195.550032,66.9940027 C196.585593,66.9940027 197.20641,67.8557991 196.958343,68.9330447 Z M197.081727,64.1069846 L190.166154,64.1069846 L187.101032,78.2844066 L191.11816,78.2844066 L192.153721,73.5871807 L195.011471,73.5871807 C197.827227,73.5871807 200.146416,71.8635878 200.768099,68.9330447 C201.471605,65.6151284 199.069727,64.1069846 197.081727,64.1069846 Z M170.529935,74.5783337 C170.326027,75.5689643 169.509527,76.0007331 168.570941,76.0438229 C167.754441,76.0864774 167.06046,75.3535152 167.591228,74.492154 C167.999045,73.7596271 169.141972,73.5872678 169.795259,73.5872678 L170.734277,73.5872678 C170.652454,73.9319863 170.571063,74.2340504 170.529935,74.5783337 Z M170.244637,66.9940898 C168.489551,66.9940898 167.101155,67.4680778 166.080746,67.6839622 L165.75432,70.3981857 C166.24396,70.1396468 167.918088,69.666094 169.305185,69.6225689 C170.693582,69.5794791 171.510082,69.8811078 171.264612,71.0876228 C167.142283,71.0876228 164.366789,71.9494193 163.795326,74.6645133 C162.978826,79.3186493 167.999045,79.1893799 169.958039,77.163723 L169.713868,78.2844936 L173.427948,78.2844936 L175.01982,70.8721737 C175.673106,67.7261815 172.815789,66.9514352 170.244637,66.9940898 Z M176.63823,67.1977871 L180.352309,67.1977871 L180.951047,73.8005406 L184.585468,67.1977871 L188.418602,67.1977871 L179.593388,83 L175.439888,83 L178.155205,78.3541337 L176.63823,67.1977871 Z M160.881641,68.9330447 C160.632709,70.0107255 159.59455,70.8725219 158.556391,70.8725219 L156.646751,70.8725219 L157.518666,66.9940027 L159.511428,66.9940027 C160.508026,66.9940027 161.172135,67.8557991 160.881641,68.9330447 Z M161.006324,64.1069846 L154.072568,64.1069846 L151.000087,78.2844066 L155.069166,78.2844066 L156.065763,73.5871807 L158.971568,73.5871807 C161.753556,73.5871807 164.078806,71.8635878 164.701355,68.9330447 C165.407026,65.6151284 163.040648,64.1069846 161.006324,64.1069846 Z M219.068436,65.9011752 L219.068436,64.2245894 L218.44632,64.2245894 L218.44632,64 L219.94468,64 L219.94468,64.2245894 L219.319534,64.2245894 L219.319534,65.9011752 L219.068436,65.9011752 Z M220.19305,65.9011752 L220.19305,64 L220.567532,64 L221.016044,65.3457952 C221.057605,65.4707122 221.087477,65.5647264 221.106526,65.6269672 C221.128172,65.5577624 221.16194,65.4563489 221.207398,65.3222917 L221.661538,64 L221.997922,64 L221.997922,65.9011752 L221.757215,65.9011752 L221.757215,64.3094633 L221.205666,65.9011752 L220.980111,65.9011752 L220.433757,64.2837835 L220.433757,65.9011752 L220.19305,65.9011752 Z" id="Paypal-Logo"></path>
                </g>
            </g>
        </g>
    </g>
</svg>